<mxfile host="Electron" modified="2023-10-03T17:29:14.981Z" agent="Mozilla/5.0 (X11; Linux x86_64) AppleWebKit/537.36 (KHTML, like Gecko) draw.io/22.0.2 Chrome/114.0.5735.289 Electron/25.8.4 Safari/537.36" etag="Etz0R-WrDo3cUgQri7cz" version="22.0.2" type="device">
  <diagram name="Page-1" id="ruhMuRLmUOqnxzcBQ_2M">
    <mxGraphModel dx="1077" dy="603" grid="1" gridSize="10" guides="1" tooltips="1" connect="1" arrows="1" fold="1" page="1" pageScale="1" pageWidth="850" pageHeight="1100" math="0" shadow="0">
      <root>
        <mxCell id="0" />
        <mxCell id="1" parent="0" />
        <mxCell id="Qh3zxZl3uRBkU9aIFSaj-1" value="" style="rounded=1;whiteSpace=wrap;html=1;dashed=1;" vertex="1" parent="1">
          <mxGeometry x="130" y="270" width="300" height="220" as="geometry" />
        </mxCell>
        <mxCell id="Qh3zxZl3uRBkU9aIFSaj-2" value="rfPart" style="rounded=0;whiteSpace=wrap;html=1;flipV=1;" vertex="1" parent="1">
          <mxGeometry x="190" y="340" width="80" height="30" as="geometry" />
        </mxCell>
        <mxCell id="Qh3zxZl3uRBkU9aIFSaj-3" value="rfTrace" style="rounded=0;whiteSpace=wrap;html=1;flipV=1;" vertex="1" parent="1">
          <mxGeometry x="190" y="290" width="80" height="30" as="geometry" />
        </mxCell>
        <mxCell id="Qh3zxZl3uRBkU9aIFSaj-4" value="rfMesh" style="rounded=0;whiteSpace=wrap;html=1;flipV=1;" vertex="1" parent="1">
          <mxGeometry x="190" y="390" width="80" height="30" as="geometry" />
        </mxCell>
        <mxCell id="Qh3zxZl3uRBkU9aIFSaj-5" value="rfPointCloud" style="rounded=0;whiteSpace=wrap;html=1;flipV=1;" vertex="1" parent="1">
          <mxGeometry x="190" y="440" width="80" height="30" as="geometry" />
        </mxCell>
        <mxCell id="Qh3zxZl3uRBkU9aIFSaj-8" value="" style="edgeStyle=orthogonalEdgeStyle;rounded=0;orthogonalLoop=1;jettySize=auto;html=1;" edge="1" parent="1" source="Qh3zxZl3uRBkU9aIFSaj-6" target="Qh3zxZl3uRBkU9aIFSaj-3">
          <mxGeometry relative="1" as="geometry" />
        </mxCell>
        <mxCell id="Qh3zxZl3uRBkU9aIFSaj-6" value="rfRobotTrace" style="rounded=0;whiteSpace=wrap;html=1;flipV=1;" vertex="1" parent="1">
          <mxGeometry x="295" y="290" width="80" height="30" as="geometry" />
        </mxCell>
        <mxCell id="Qh3zxZl3uRBkU9aIFSaj-10" style="edgeStyle=orthogonalEdgeStyle;rounded=0;orthogonalLoop=1;jettySize=auto;html=1;entryX=1;entryY=0.5;entryDx=0;entryDy=0;" edge="1" parent="1" source="Qh3zxZl3uRBkU9aIFSaj-7" target="Qh3zxZl3uRBkU9aIFSaj-2">
          <mxGeometry relative="1" as="geometry" />
        </mxCell>
        <mxCell id="Qh3zxZl3uRBkU9aIFSaj-7" value="rfAssembly" style="rounded=0;whiteSpace=wrap;html=1;flipV=1;" vertex="1" parent="1">
          <mxGeometry x="295" y="340" width="80" height="30" as="geometry" />
        </mxCell>
        <mxCell id="Qh3zxZl3uRBkU9aIFSaj-11" value="rfDB" style="text;html=1;align=center;verticalAlign=middle;resizable=0;points=[];autosize=1;strokeColor=none;fillColor=none;" vertex="1" parent="1">
          <mxGeometry x="250" y="240" width="50" height="30" as="geometry" />
        </mxCell>
        <mxCell id="Qh3zxZl3uRBkU9aIFSaj-12" value="" style="rounded=1;whiteSpace=wrap;html=1;dashed=1;" vertex="1" parent="1">
          <mxGeometry x="540" y="300" width="260" height="190" as="geometry" />
        </mxCell>
        <mxCell id="Qh3zxZl3uRBkU9aIFSaj-13" value="Shape" style="text;html=1;align=center;verticalAlign=middle;resizable=0;points=[];autosize=1;strokeColor=none;fillColor=none;" vertex="1" parent="1">
          <mxGeometry x="630" y="268" width="60" height="30" as="geometry" />
        </mxCell>
        <mxCell id="Qh3zxZl3uRBkU9aIFSaj-20" value="" style="edgeStyle=orthogonalEdgeStyle;rounded=0;orthogonalLoop=1;jettySize=auto;html=1;" edge="1" parent="1" source="Qh3zxZl3uRBkU9aIFSaj-14" target="Qh3zxZl3uRBkU9aIFSaj-18">
          <mxGeometry relative="1" as="geometry" />
        </mxCell>
        <mxCell id="Qh3zxZl3uRBkU9aIFSaj-14" value="AIS_Shape" style="rounded=0;whiteSpace=wrap;html=1;flipV=1;" vertex="1" parent="1">
          <mxGeometry x="585" y="320" width="80" height="30" as="geometry" />
        </mxCell>
        <mxCell id="Qh3zxZl3uRBkU9aIFSaj-15" value="shape_utils" style="rounded=0;whiteSpace=wrap;html=1;flipV=1;" vertex="1" parent="1">
          <mxGeometry x="700" y="320" width="80" height="30" as="geometry" />
        </mxCell>
        <mxCell id="Qh3zxZl3uRBkU9aIFSaj-16" value="PointCloudShape" style="rounded=0;whiteSpace=wrap;html=1;flipV=1;" vertex="1" parent="1">
          <mxGeometry x="570" y="440" width="110" height="30" as="geometry" />
        </mxCell>
        <mxCell id="Qh3zxZl3uRBkU9aIFSaj-18" value="bondingbox_utils" style="rounded=0;whiteSpace=wrap;html=1;flipV=1;" vertex="1" parent="1">
          <mxGeometry x="570" y="380" width="110" height="30" as="geometry" />
        </mxCell>
        <mxCell id="Qh3zxZl3uRBkU9aIFSaj-19" value="builder:&lt;br&gt;abassica&lt;br&gt;arrow" style="rounded=0;whiteSpace=wrap;html=1;flipV=1;" vertex="1" parent="1">
          <mxGeometry x="700" y="360" width="80" height="50" as="geometry" />
        </mxCell>
      </root>
    </mxGraphModel>
  </diagram>
</mxfile>
